<svg xmlns="http://www.w3.org/2000/svg" version="1.1" xmlns:xlink="http://www.w3.org/1999/xlink" xmlns:svgjs="http://svgjs.dev/svgjs" width="1000" height="1000" viewBox="0 0 1000 1000"><rect width="1000" height="1000" fill="#000000"></rect><g transform="matrix(0.7,0,0,0.7,150,150)"><svg viewBox="0 0 280 280" data-background-color="#ffffff" preserveAspectRatio="xMidYMid meet" height="1000" width="1000" xmlns="http://www.w3.org/2000/svg" xmlns:xlink="http://www.w3.org/1999/xlink"><g id="tight-bounds" transform="matrix(1,0,0,1,0,0)"><svg viewBox="0 0 280 280" height="280" width="280"><g><svg viewBox="0 0 280 280" height="280" width="280"><g><svg viewBox="0 0 280 280" height="280" width="280"><g id="textblocktransform"><svg viewBox="0 0 280 280" height="280" width="280" id="textblock"><g><svg viewBox="0 0 280 280" height="280" width="280"><g transform="matrix(1,0,0,1,105.45409615805428,74.00336708925556)"><svg viewBox="0 0 69.09180768389145 131.99326582148888" height="131.99326582148888" width="69.09180768389145"><g><svg xmlns="http://www.w3.org/2000/svg" xmlns:xlink="http://www.w3.org/1999/xlink" version="1.1" x="0" y="0" viewBox="19.682354658322133 3.5 35.57297155366782 67.95874717630606" enable-background="new 0 0 75 75" xml:space="preserve" height="131.99326582148888" width="69.09180768389145" class="icon-wg-0" data-fill-palette-color="accent" id="wg-0"><path d="M21.2 59.5c-1.1-2.6-4.2-12.2 3.8-24.7C36 18 31.7 3.5 31.7 3.5S46 8.8 41.7 37.5c-1 6.5-0.9 9 2 9.4 5 0.7 3.1-19.7 3.1-19.7s3.9 2 6.8 12.1c1.5 5.3 1.8 9.5 1.6 12.5-1 18.1-16.5 19.6-16.5 19.6S26.9 73 21.2 59.5z" fill="#ffffff" data-fill-palette-color="accent"></path></svg></g></svg></g><g><path d="M34.165 191.125L35.02 190.825C36.579 190.277 37.541 189.219 37.904 187.649 38.274 186.078 38.109 184.293 37.408 182.295V182.295C36.689 180.247 35.726 178.735 34.518 177.76 33.317 176.781 31.886 176.584 30.227 177.166V177.166C29.137 177.548 28.378 178.181 27.949 179.063 27.511 179.941 27.274 180.928 27.237 182.024 27.197 183.114 27.257 184.549 27.418 186.328V186.328C27.588 188.477 27.644 190.241 27.586 191.619 27.534 192.994 27.155 194.278 26.447 195.468 25.748 196.663 24.556 197.556 22.871 198.147V198.147C20.197 199.086 17.936 198.895 16.087 197.574 14.246 196.258 12.833 194.196 11.849 191.391V191.391C10.831 188.491 10.614 185.947 11.197 183.759 11.786 181.569 13.427 180.002 16.12 179.057V179.057L16.837 178.847 17.536 180.839 16.471 181.17C14.579 181.834 13.439 183.004 13.05 184.681 12.663 186.364 12.865 188.333 13.656 190.588V190.588C15.421 195.617 18.21 197.462 22.024 196.124V196.124C23.245 195.695 24.112 195.008 24.624 194.061 25.134 193.109 25.407 192.063 25.444 190.925 25.482 189.793 25.431 188.274 25.29 186.368V186.368C25.137 184.269 25.093 182.569 25.156 181.266 25.226 179.962 25.592 178.74 26.254 177.6 26.918 176.467 28.043 175.622 29.627 175.066V175.066C31.806 174.301 33.731 174.565 35.401 175.857 37.078 177.146 38.362 179.062 39.254 181.605V181.605C40.173 184.223 40.349 186.549 39.783 188.583 39.217 190.618 37.741 192.054 35.355 192.891V192.891L34.847 193.069ZM44.78 199.658L46.504 198.602 51.069 206.056 49.346 207.112 47.645 204.336 26.973 216.997 28.674 219.773 26.95 220.829 22.385 213.375 24.108 212.32 25.814 215.104 46.486 202.443ZM51.089 248.037L49.717 246.608 56.2 218.66 56.117 218.574 38.782 235.219 37.41 233.79 57.812 214.201 59.129 215.573 52.701 243.578 52.783 243.664 70.119 227.02 71.491 228.449ZM87.872 256.502L79.565 251.755 80.524 250.079 90.619 255.848 85.897 264.111C85.298 265.16 84.804 266.097 84.416 266.923 84.023 267.745 83.777 268.27 83.678 268.496V268.496L82.356 267.74C82.386 267.567 82.509 267.171 82.725 266.552 82.935 265.931 83.249 265.121 83.667 264.121V264.121C82.226 264.971 80.689 265.32 79.056 265.167 77.421 265.005 75.791 264.459 74.166 263.531V263.531C72.259 262.441 70.829 261.164 69.875 259.702 68.922 258.24 68.567 256.394 68.81 254.163 69.062 251.93 70.089 249.237 71.89 246.085V246.085L72.419 245.16C74.22 242.008 76.019 239.757 77.815 238.406 79.614 237.064 81.385 236.433 83.129 236.512 84.872 236.591 86.698 237.175 88.605 238.265V238.265C91.279 239.793 93.081 241.71 94.011 244.015 94.944 246.314 94.489 249.077 92.645 252.304V252.304L90.752 251.222C92.253 248.595 92.639 246.369 91.908 244.545 91.18 242.715 89.753 241.192 87.627 239.977V239.977C85.287 238.64 83.073 238.334 80.985 239.059 78.894 239.775 76.763 242.032 74.593 245.829V245.829L73.571 247.619C71.4 251.416 70.538 254.397 70.982 256.562 71.417 258.73 72.805 260.482 75.144 261.819V261.819C80.014 264.602 83.9 263.452 86.805 258.369V258.369ZM125.696 251.523L120.919 270.134C120.447 271.972 119.638 273.481 118.493 274.66 117.354 275.841 115.963 276.625 114.322 277.012 112.675 277.398 110.906 277.348 109.016 276.863V276.863C107.126 276.378 105.558 275.571 104.313 274.443 103.074 273.317 102.237 271.961 101.801 270.376 101.371 268.792 101.393 267.081 101.865 265.243V265.243L106.642 246.632 108.802 247.186 104.044 265.72C103.463 267.983 103.65 269.939 104.604 271.589 105.558 273.238 107.192 274.36 109.506 274.954V274.954C111.82 275.548 113.803 275.338 115.455 274.323 117.105 273.314 118.213 271.707 118.779 269.502V269.502L123.536 250.969ZM153.273 279.792L136.539 280 136.187 251.719 138.417 251.691 138.745 277.991 152.761 277.817ZM186.333 271.629L181.61 265.681 167.24 269.743 166.368 277.272 164.155 277.898 167.728 247.496 169.711 246.936 188.67 270.968ZM169.39 250.192L167.485 267.573 180.265 263.961 169.544 250.149ZM219.514 254.475C219.475 254.528 219.383 254.62 219.236 254.751 219.089 254.881 218.909 255.008 218.697 255.131V255.131C217.961 255.556 217.124 255.606 216.186 255.282 215.25 254.948 214.266 253.888 213.234 252.1V252.1C211.585 249.244 209.988 247.633 208.443 247.268 206.902 246.908 205.597 247.037 204.528 247.654V247.654L196.639 252.209 203.359 263.848 201.428 264.963 187.286 240.469 197.244 234.72C198.411 234.046 199.662 233.665 200.998 233.576 202.328 233.49 203.58 233.721 204.755 234.269 205.921 234.814 206.847 235.682 207.534 236.872V236.872C208.028 237.728 208.326 238.683 208.428 239.735 208.53 240.788 208.414 241.809 208.081 242.798 207.745 243.782 207.213 244.579 206.486 245.191V245.191L206.59 245.372C206.52 245.251 206.964 245.183 207.92 245.167 208.886 245.154 209.958 245.497 211.135 246.196 212.313 246.896 213.451 248.197 214.55 250.099V250.099C215.333 251.456 215.991 252.402 216.522 252.938 217.054 253.474 217.457 253.766 217.73 253.815 217.998 253.868 218.461 253.861 219.12 253.794V253.794ZM203.788 245.794C204.644 245.3 205.317 244.627 205.808 243.777 206.3 242.918 206.55 242.004 206.557 241.034 206.567 240.055 206.324 239.137 205.83 238.281V238.281C205.335 237.425 204.667 236.764 203.824 236.301 202.988 235.833 202.083 235.601 201.111 235.603 200.148 235.607 199.226 235.863 198.347 236.371V236.371L190.208 241.07 195.649 250.493ZM212.33 226.166L210.956 224.683 217.368 218.742 218.741 220.225 216.353 222.437 232.83 240.219 235.218 238.006 236.592 239.489 230.18 245.43 228.806 243.947 231.202 241.728 214.725 223.946ZM236.056 196.472L230.646 204.35 252.327 219.241 251.11 221.013 229.428 206.123 224.018 214.001 222.385 212.879 234.423 195.35ZM243.769 171.135L256.478 186.657 266.765 190.471 265.99 192.561 255.703 188.747 235.944 192.241 236.847 189.804 253.986 186.879 254.027 186.767 242.983 173.254Z" fill="#ffffff" data-fill-palette-color="secondary"></path><path d="M14.931 89.399L14.085 89.103C12.55 88.567 11.16 88.791 9.916 89.776 8.665 90.759 7.695 92.238 7.005 94.211V94.211C6.3 96.228 6.111 97.984 6.44 99.477 6.763 100.967 7.742 101.999 9.377 102.57V102.57C10.455 102.947 11.431 102.93 12.306 102.518 13.181 102.107 13.968 101.493 14.669 100.676 15.369 99.859 16.204 98.717 17.175 97.249V97.249C18.367 95.487 19.41 94.093 20.302 93.07 21.188 92.043 22.269 91.286 23.543 90.796 24.816 90.313 26.286 90.363 27.952 90.945V90.945C30.584 91.865 32.206 93.399 32.819 95.547 33.43 97.701 33.253 100.16 32.287 102.923V102.923C31.286 105.786 29.887 107.877 28.09 109.196 26.291 110.522 24.063 110.72 21.406 109.792V109.792L20.724 109.511 21.407 107.556 22.428 107.955C24.295 108.608 25.895 108.405 27.229 107.345 28.56 106.292 29.615 104.653 30.392 102.429V102.429C32.127 97.467 31.115 94.329 27.356 93.015V93.015C26.153 92.594 25.063 92.593 24.087 93.011 23.105 93.427 22.251 94.06 21.525 94.91 20.797 95.767 19.902 96.969 18.841 98.517V98.517C17.672 100.232 16.658 101.572 15.8 102.538 14.951 103.499 13.92 104.215 12.709 104.684 11.499 105.147 10.115 105.106 8.555 104.561V104.561C6.406 103.81 5.083 102.423 4.588 100.401 4.086 98.376 4.274 96.111 5.15 93.605V93.605C6.052 91.024 7.35 89.122 9.043 87.9 10.727 86.682 12.747 86.484 15.103 87.308V87.308L15.601 87.482ZM18.133 71.018L16.434 69.979 20.935 62.625 22.633 63.664 20.954 66.407 41.335 78.878 43.013 76.136 44.711 77.175 40.211 84.529 38.513 83.489 40.191 80.747 19.811 68.275ZM66.055 53.529L64.703 54.937 36.919 49.658 36.829 49.752 53.917 66.166 52.572 67.566 32.469 48.255 33.758 46.913 61.598 52.133 61.688 52.04 44.6 35.626 45.952 34.219ZM85.789 27.154L77.604 31.832 76.655 30.173 86.603 24.486 91.262 32.637C91.855 33.674 92.402 34.565 92.905 35.31 93.404 36.049 93.726 36.519 93.871 36.719V36.719L92.565 37.465C92.44 37.353 92.168 37.05 91.748 36.556 91.322 36.065 90.788 35.392 90.146 34.536V34.536C90.158 36.188 89.686 37.67 88.73 38.98 87.78 40.288 86.505 41.399 84.903 42.315V42.315C83.024 43.389 81.224 43.963 79.501 44.038 77.781 44.119 76.037 43.495 74.268 42.167 72.494 40.842 70.719 38.626 68.944 35.52V35.52L68.421 34.604C66.645 31.499 65.637 28.845 65.395 26.644 65.148 24.446 65.496 22.626 66.438 21.186 67.377 19.739 68.786 18.479 70.664 17.405V17.405C73.298 15.9 75.827 15.33 78.252 15.694 80.674 16.053 82.792 17.819 84.607 20.994V20.994L82.74 22.061C81.261 19.474 79.564 18.036 77.649 17.748 75.73 17.453 73.724 17.904 71.633 19.099V19.099C69.328 20.417 67.96 22.143 67.529 24.278 67.092 26.416 67.942 29.354 70.08 33.094V33.094L71.088 34.857C73.225 38.597 75.326 40.821 77.39 41.529 79.448 42.241 81.63 41.938 83.934 40.621V40.621C88.734 37.877 89.703 34.002 86.841 28.994V28.994ZM116.716 1.348L121.428 19.688C121.893 21.5 121.915 23.187 121.494 24.748 121.066 26.311 120.235 27.648 118.999 28.761 117.759 29.881 116.207 30.681 114.342 31.159V31.159C112.485 31.637 110.749 31.682 109.135 31.295 107.529 30.912 106.162 30.14 105.035 28.977 103.913 27.812 103.119 26.323 102.654 24.51V24.51L97.942 6.171 100.064 5.626 104.755 23.888C105.328 26.119 106.418 27.72 108.024 28.692 109.631 29.663 111.575 29.856 113.857 29.27V29.27C116.145 28.682 117.762 27.561 118.708 25.906 119.653 24.252 119.846 22.335 119.286 20.156V20.156L114.595 1.893ZM152.824 28.076L136.329 27.873 136.671 0 138.861 0.027 138.543 25.949 152.36 26.119ZM180.479 35.397L179.579 27.963 165.428 23.966 160.81 29.84 158.616 29.221 177.307 5.535 179.262 6.087 182.788 36.049ZM177.304 8.658L166.746 22.269 179.344 25.828 177.467 8.704ZM208.925 50.422C208.865 50.418 208.742 50.385 208.556 50.324 208.375 50.265 208.178 50.175 207.966 50.052V50.052C207.236 49.63 206.781 48.938 206.6 47.976 206.42 47.014 206.838 45.653 207.854 43.894V43.894C209.48 41.078 210.068 38.923 209.62 37.43 209.175 35.932 208.423 34.877 207.366 34.267V34.267L199.589 29.777 192.963 41.252 191.067 40.157 205.004 16.016 214.816 21.681C215.965 22.345 216.906 23.225 217.637 24.321 218.362 25.415 218.783 26.597 218.9 27.867 219.012 29.135 218.729 30.355 218.052 31.527V31.527C217.564 32.372 216.893 33.096 216.039 33.699 215.191 34.305 214.264 34.709 213.259 34.91 212.254 35.112 211.312 35.051 210.433 34.727V34.727L210.329 34.908C210.398 34.788 210.675 35.131 211.159 35.939 211.645 36.757 211.882 37.84 211.869 39.189 211.853 40.544 211.303 42.161 210.218 44.041V44.041C209.448 45.374 208.964 46.398 208.767 47.111 208.575 47.828 208.52 48.314 208.603 48.569 208.692 48.827 208.928 49.22 209.313 49.749V49.749ZM208.591 32.721C209.43 33.206 210.336 33.449 211.308 33.451 212.281 33.453 213.184 33.215 214.018 32.739 214.849 32.269 215.509 31.611 215.997 30.766V30.766C216.484 29.921 216.723 29.024 216.711 28.075 216.697 27.131 216.449 26.245 215.97 25.417 215.493 24.597 214.82 23.937 213.952 23.436V23.436L205.926 18.801 200.564 28.087ZM233.645 37.969L234.999 36.509 241.319 42.373 239.965 43.832 237.608 41.645 221.357 59.161 223.715 61.348 222.36 62.808 216.04 56.944 217.394 55.484 219.752 57.671 236.002 40.156ZM261.866 72.77L256.538 64.992 235.15 79.642 233.957 77.901 255.345 63.251 250.017 55.473 251.627 54.37 263.475 71.668ZM276.828 103.62L257.359 100.153 247.216 103.898 246.458 101.843 256.6 98.099 269.146 82.812 270.032 85.212 259.085 98.391 259.127 98.503 276.056 101.528Z" fill="#ffffff" data-fill-palette-color="primary"></path><path d="M3.172 143.483C3.172 137.515 8.009 132.678 13.976 132.678 19.943 132.678 24.78 137.515 24.78 143.483 24.78 149.45 19.943 154.287 13.976 154.287 8.009 154.287 3.172 149.45 3.172 143.483ZM254.054 143.483C254.054 137.515 258.892 132.678 264.859 132.678 270.826 132.678 275.663 137.515 275.663 143.483 275.663 149.45 270.826 154.287 264.859 154.287 258.892 154.287 254.054 149.45 254.054 143.483Z" fill="#ffffff" data-fill-palette-color="primary"></path></g></svg></g></svg></g></svg></g><g></g></svg></g><defs></defs></svg><rect width="280" height="280" fill="none" stroke="none" visibility="hidden"></rect></g></svg></g></svg>